<svg width="24" height="26" viewBox="0 0 24 26" fill="none" xmlns="http://www.w3.org/2000/svg">
<circle cx="12" cy="13" r="12" fill="#EFE8DE"/>
<path d="M3.82031 10.1172C3.32552 9.92188 3 9.66797 2.84375 9.35547C3.21484 8.65234 3.46224 8.18034 3.58594 7.93945C3.71615 7.69857 3.86263 7.33073 4.02539 6.83594C4.19466 6.33464 4.31185 5.83008 4.37695 5.32227H11.1445H19.2793C19.4421 6.59831 19.9499 7.94271 20.8027 9.35547C20.653 9.66797 20.3047 9.92188 19.7578 10.1172C19.224 9.14714 18.4362 8.33984 17.3945 7.69531C16.3594 7.04427 15.015 6.71875 13.3613 6.71875C13.3092 8.33333 13.2832 10.2474 13.2832 12.4609C13.2832 15.2865 13.3158 17.347 13.3809 18.6426C13.3939 18.8835 14.1198 19.0755 15.5586 19.2188C15.6693 19.6354 15.6562 20.0553 15.5195 20.4785C13.4102 20.4264 12.1829 20.4004 11.8379 20.4004C11.3171 20.4004 9.85872 20.4264 7.46289 20.4785C7.30013 20.0293 7.30013 19.6094 7.46289 19.2188C8.87565 19.0755 9.58854 18.89 9.60156 18.6621C9.66667 17.0215 9.69922 14.9544 9.69922 12.4609C9.69922 10.3776 9.67318 8.48307 9.62109 6.77734C6.91276 7.12891 4.97917 8.24219 3.82031 10.1172ZM6.58398 6.37695L10.002 6.2793C10.0671 8.44076 10.0996 10.5013 10.0996 12.4609C10.0996 14.9805 10.0671 17.0475 10.002 18.6621C9.98893 19.1439 9.23372 19.4564 7.73633 19.5996C7.68424 19.7038 7.68424 19.8568 7.73633 20.0586C8.8431 20.0195 9.97917 20 11.1445 20C12.5312 20 13.8626 20.0195 15.1387 20.0586C15.1908 19.9414 15.1908 19.7884 15.1387 19.5996C12.9772 19.4694 11.89 19.1569 11.877 18.6621C11.8118 16.5007 11.7793 14.4336 11.7793 12.4609C11.7793 9.95443 11.8118 7.89388 11.877 6.2793L13.3809 6.31836C16.623 6.39648 18.8105 7.49674 19.9434 9.61914C20.1126 9.55404 20.2233 9.46615 20.2754 9.35547C19.6243 8.02734 18.8952 7.08984 18.0879 6.54297C17.2806 5.99609 16.0794 5.72266 14.4844 5.72266H11.1445C10.4349 5.72266 9.36393 5.7194 7.93164 5.71289C6.49935 5.70638 5.4349 5.70312 4.73828 5.70312C4.71224 5.92448 4.66667 6.1556 4.60156 6.39648C4.53646 6.63737 4.47461 6.84245 4.41602 7.01172C4.36393 7.17448 4.27279 7.39258 4.14258 7.66602C4.01888 7.93945 3.93424 8.125 3.88867 8.22266C3.8431 8.3138 3.73893 8.51562 3.57617 8.82812C3.41992 9.14062 3.32878 9.31641 3.30273 9.35547C3.35482 9.46615 3.46875 9.55404 3.64453 9.61914C4.10677 8.85742 4.46484 8.29427 4.71875 7.92969C4.97266 7.5651 5.27214 7.2168 5.61719 6.88477C5.96875 6.54622 6.29102 6.37695 6.58398 6.37695Z" fill="#BB865F"/>
</svg>
